<?xml version="1.0" standalone="no"?>
<!DOCTYPE svg PUBLIC "-//W3C//DTD SVG 20010904//EN"
 "http://www.w3.org/TR/2001/REC-SVG-20010904/DTD/svg10.dtd">
<svg version="1.0" xmlns="http://www.w3.org/2000/svg"
 width="604.000000pt" height="362.000000pt" viewBox="0 0 604.000000 362.000000"
 preserveAspectRatio="xMidYMid meet">

<g transform="translate(0.000000,362.000000) scale(0.100000,-0.100000)"
fill="#9933cc" stroke="none">
<path d="M4625 3420 c-196 -23 -388 -98 -483 -189 -135 -129 -202 -316 -202
-560 0 -202 41 -303 180 -442 48 -47 122 -109 166 -138 104 -69 336 -182 559
-271 428 -172 633 -293 749 -444 63 -80 86 -159 86 -291 0 -225 -62 -412 -170
-514 -46 -43 -132 -93 -210 -122 -138 -50 -233 -63 -455 -63 -180 1 -212 3
-315 27 -297 68 -453 209 -555 502 -16 44 -32 84 -37 90 -5 5 -29 -1 -63 -18
l-55 -27 21 -57 c39 -108 116 -258 164 -321 123 -162 324 -270 575 -308 127
-19 445 -18 573 1 397 60 600 268 653 670 25 188 8 317 -59 435 -42 75 -184
214 -287 282 -116 76 -182 108 -517 248 -356 150 -443 192 -578 282 -134 88
-214 168 -257 256 -30 61 -33 77 -36 184 -4 124 7 205 51 351 23 77 25 80 97
137 99 79 172 117 284 145 317 80 644 36 823 -113 63 -52 117 -128 169 -235
76 -159 92 -128 -172 -327 -126 -94 -230 -175 -232 -181 -2 -5 37 -9 94 -9
l97 0 213 160 214 160 -31 87 c-69 196 -133 305 -241 410 -156 151 -295 201
-578 208 -91 2 -196 0 -235 -5z"/>
<path d="M100 3384 c0 -8 1111 -3047 1120 -3064 11 -19 -6 -62 306 792 148
406 271 738 274 738 7 0 270 -706 436 -1172 77 -213 141 -384 145 -380 3 4 39
99 79 212 106 296 467 1293 770 2125 145 396 265 728 267 738 5 16 -70 17
-1476 17 l-1481 0 0 -65 0 -65 1391 0 c1109 0 1390 -3 1386 -12 -44 -116 -723
-1988 -873 -2406 -32 -89 -61 -162 -64 -162 -4 0 -79 199 -167 443 -228 626
-407 1107 -413 1107 -3 0 -38 -91 -79 -203 -117 -321 -468 -1279 -481 -1312
l-12 -30 -12 25 c-7 14 -230 622 -496 1353 l-484 1327 -68 0 c-37 0 -68 -3
-68 -6z"/>
</g>
</svg>
